<svg width="515" height="515" viewBox="0 0 515 515" fill="none" xmlns="http://www.w3.org/2000/svg">
<path d="M211.5 357L205.37 356.319C200.471 355.775 195.642 354.714 190.965 353.155L186 351.5L179.96 348.911C174.673 346.646 169.686 343.737 165.111 340.252L161.5 337.5L153.5 330L146.696 324.084C143.585 321.378 140.064 319.185 136.264 317.585V317.585C127.705 313.981 120.717 307.434 116.564 299.127L114.667 295.334C112.566 291.132 111.063 286.657 110.202 282.039L107.249 266.199C106.423 261.769 104.813 257.521 102.494 253.657V253.657C97.9726 246.121 96.2129 237.247 97.5165 228.557L99.1917 217.389C99.7296 213.803 100.577 210.27 101.723 206.831L102.267 205.199C104.728 197.817 108.729 191.043 114.007 185.326L115.104 184.137C117.029 182.052 118.726 179.766 120.165 177.32L120.707 176.398C122.228 173.812 123.38 171.026 124.13 168.121V168.121C125.986 160.929 130.272 154.6 136.262 150.208L137.867 149.031C140.61 147.019 143.068 144.647 145.176 141.977L146.022 140.905C148.333 137.978 150.293 134.791 151.864 131.409L156 122.5L156.969 120.475C159.927 114.29 164.606 109.089 170.444 105.496V105.496C173.136 103.839 176.036 102.548 179.068 101.656L184.734 99.99C189.221 98.6702 193.875 98 198.553 98V98C203.816 98 209.046 98.8486 214.04 100.513L214.44 100.647C219.123 102.208 223.556 104.432 227.607 107.253L243.254 118.15C247.406 121.041 251.859 123.474 256.535 125.406L272.5 132L278.458 133.73C284.787 135.567 290.826 138.29 296.395 141.817L297.23 142.346C301.068 144.776 304.659 147.574 307.955 150.701L312.922 155.413C319.251 161.418 324.403 168.554 328.11 176.452L334 189" stroke="black" stroke-width="15" stroke-linecap="round"/>
<path d="M228 406.5L294 442.5" stroke="black" stroke-width="15" stroke-linecap="round"/>
<path d="M367 155L433 191" stroke="black" stroke-width="15" stroke-linecap="round"/>
<path d="M228 406L228.103 405.313C229.032 399.118 230.542 393.024 232.611 387.112L233 386L238.5 372L245.5 358L254.5 342L267.5 321.5L282 301L295.5 282.5L311 263L324.5 245.5L335.5 229.5L346 210.5L358 181L365.5 156" stroke="black" stroke-width="15" stroke-linecap="round"/>
<path d="M251 419L251.103 418.313C252.032 412.118 253.542 406.024 255.611 400.112L256 399L261.5 385L268.5 371L277.5 355L290.5 334.5L305 314L318.5 295.5L334 276L347.5 258.5L358.5 242.5L369 223.5L381 194L388.5 169" stroke="black" stroke-width="15" stroke-linecap="round"/>
<path d="M274 431L274.103 430.313C275.032 424.118 276.542 418.024 278.611 412.112L279 411L284.5 397L291.5 383L300.5 367L313.5 346.5L328 326L341.5 307.5L357 288L370.5 270.5L381.5 254.5L392 235.5L404 206L411.5 181" stroke="black" stroke-width="15" stroke-linecap="round"/>
<path d="M295 443L295.103 442.313C296.032 436.118 297.542 430.024 299.611 424.112L300 423L305.5 409L312.5 395L321.5 379L334.5 358.5L349 338L362.5 319.5L378 300L391.5 282.5L402.5 266.5L413 247.5L425 218L432.5 193" stroke="black" stroke-width="15" stroke-linecap="round"/>
<circle cx="239.5" cy="223.5" r="50" fill="#FCBA7E" stroke="#FCBA7E" stroke-width="15"/>
<circle cx="257" cy="258" r="207.5" stroke="black" stroke-width="15"/>
<circle cx="257.5" cy="257.5" r="250" stroke="black" stroke-width="15"/>
</svg>
