<svg width="552" height="475" viewBox="0 0 552 475" fill="none" xmlns="http://www.w3.org/2000/svg">
<path d="M445 216.5L459.264 227.368C463.744 230.781 467.887 234.617 471.635 238.822L478.765 246.821C483.841 252.517 487.415 259.39 489.163 266.817V266.817C491.334 276.045 490.59 285.719 487.033 294.506L486.871 294.906C484.97 299.605 482.323 303.966 479.034 307.823L469.5 319L451.5 340.5" stroke="black" stroke-width="15" stroke-linecap="round"/>
<path d="M10 343H540" stroke="black" stroke-width="15" stroke-linecap="round"/>
<path d="M162 437H390" stroke="black" stroke-width="15" stroke-linecap="round"/>
<path d="M122.5 300L198.5 222.5" stroke="black" stroke-width="15" stroke-linecap="round"/>
<path d="M380 86.5L422.27 42.4865C426.129 38.4683 427.571 32.7063 426.059 27.3442L425.903 26.7909C424.168 20.6399 426.548 14.0674 431.818 10.4531V10.4531C437.023 6.88455 443.91 6.98002 449.013 10.6915L449.194 10.8232C453.96 14.2887 456.297 20.1932 455.194 25.9812L455 27" stroke="black" stroke-width="15" stroke-linecap="round"/>
<path d="M398.687 103.815L441.199 60.0342C445.08 56.0372 450.788 54.3955 456.2 55.7198L456.758 55.8564C462.966 57.3756 469.451 54.7679 472.879 49.3741V49.3741C476.264 44.0485 475.928 37.1686 472.041 32.1979L471.903 32.0216C468.273 27.3803 462.291 25.2507 456.545 26.5545L455.534 26.784" stroke="black" stroke-width="15" stroke-linecap="round"/>
<path d="M440.41 134.202L488.394 96.4997C492.775 93.0577 495.004 87.5524 494.253 82.032L494.175 81.4624C493.313 75.1298 496.585 68.9525 502.307 66.1069V66.1069C507.958 63.2973 514.765 64.3504 519.302 68.736L519.463 68.8916C523.699 72.9866 525.192 79.1589 523.295 84.7371L522.961 85.719" stroke="black" stroke-width="15" stroke-linecap="round"/>
<path d="M456.505 153.949L504.696 116.511C509.096 113.093 514.977 112.262 520.152 114.326L520.685 114.539C526.621 116.908 533.407 115.228 537.552 110.364V110.364C541.645 105.561 542.27 98.7013 539.112 93.238L539 93.0442C536.052 87.9429 530.424 85.0015 524.553 85.4929L523.519 85.5794" stroke="black" stroke-width="15" stroke-linecap="round"/>
<path d="M267.5 137L304.5 109.5L327.181 94.8922C331.703 91.9795 336.624 89.7382 341.79 88.2384L348.995 86.1467C359.204 83.1828 370.185 84.589 379.318 90.0298V90.0298C385.325 93.6084 390.239 98.7611 393.53 104.931L404.5 125.5" stroke="black" stroke-width="15" stroke-linecap="round"/>
<path d="M125 299.5L142.393 297.203C148.437 296.405 154.561 296.42 160.601 297.249L169.868 298.521C174.555 299.164 179.02 300.919 182.89 303.639L186.503 306.178C192.143 310.141 195.5 316.603 195.5 323.496V323.496C195.5 325.159 195.304 326.817 194.916 328.435L192.5 338.5" stroke="black" stroke-width="15" stroke-linecap="round"/>
<path d="M162 467H390" stroke="black" stroke-width="15" stroke-linecap="round"/>
<path d="M162 439L162 464" stroke="black" stroke-width="15" stroke-linecap="round"/>
<path d="M390 439L390 464" stroke="black" stroke-width="15" stroke-linecap="round"/>
<path d="M68 341L60.998 331.997C56.4624 326.166 54 318.989 54 311.602V311.602C54 303.785 56.7561 296.219 61.7836 290.234L69.8021 280.688C73.255 276.577 77.1863 272.894 81.5126 269.715L91.8271 262.137C96.9308 258.388 102.379 255.131 108.099 252.412L130 242L164.5 229.5L198.5 222" stroke="black" stroke-width="15" stroke-linecap="round"/>
<path d="M8 343L10.4215 348.045C12.8031 353.006 15.5903 357.763 18.7546 362.266L22.3847 367.432C25.4566 371.804 28.874 375.922 32.6039 379.748L40.9439 388.301C44.6421 392.094 48.6359 395.588 52.8876 398.748L65 407.751L81.5826 417.057C86.85 420.013 92.3744 422.486 98.088 424.444L113.411 429.698C120.779 432.224 128.416 433.881 136.167 434.634L160.5 437" stroke="black" stroke-width="15" stroke-linecap="round"/>
<path d="M542.5 343L540.079 348.045C537.697 353.006 534.91 357.763 531.745 362.266L528.115 367.432C525.043 371.804 521.626 375.922 517.896 379.748L509.556 388.301C505.858 392.094 501.864 395.588 497.612 398.748L485.5 407.751L468.917 417.057C463.65 420.013 458.126 422.486 452.412 424.444L437.089 429.698C429.721 432.224 422.084 433.881 414.333 434.634L390 437" stroke="black" stroke-width="15" stroke-linecap="round"/>
<path d="M29.5 339.5L22.5832 330.228C12.0279 316.08 7.97701 298.115 11.4388 280.806V280.806C12.4754 275.623 14.1679 270.593 16.4755 265.838L29.5 239L47.7092 210.718C51.228 205.252 55.2713 200.143 59.7818 195.462L72.2397 182.534C77.0667 177.525 82.4033 173.033 88.1627 169.132L101.011 160.428C107.316 156.157 114.089 152.62 121.198 149.886L143 141.5L159.496 136.701C166.808 134.574 174.339 133.289 181.943 132.871L205.483 131.578C212.475 131.194 219.488 131.545 226.407 132.626L264 138.5L297.485 147.599C305.793 149.857 313.776 153.178 321.234 157.481L323 158.5" stroke="black" stroke-width="15" stroke-linecap="round"/>
<path d="M392.912 265.99L433.429 219.035C437.468 214.355 441.063 209.311 444.17 203.967L449.719 194.423C451.236 191.815 452.481 189.057 453.435 186.195C456.707 176.378 456.427 165.724 452.643 156.092L451.557 153.326C448.896 146.552 444.562 140.564 438.96 135.918C431.23 129.508 421.504 126 411.462 126H410.737C403.998 126 397.345 127.51 391.267 130.42L320.052 164.513C311.09 168.803 302.974 174.67 296.091 181.834L293.269 184.771C285.866 192.476 280.437 201.857 277.446 212.115L277.203 212.948C273.494 225.664 273.852 239.221 278.228 251.723L278.487 252.463C280.81 259.101 284.299 265.272 288.788 270.686C295.476 278.75 304.185 284.895 314.026 288.49L314.715 288.742C321.519 291.228 328.706 292.5 335.95 292.5H337.231C350.778 292.5 364.026 288.519 375.329 281.051L377.173 279.832C383.03 275.963 388.326 271.305 392.912 265.99Z" stroke="#FCBA7E" stroke-width="15" stroke-linecap="round"/>
</svg>
