<svg width="500" height="500" viewBox="0 0 500 500" fill="none" xmlns="http://www.w3.org/2000/svg">
<path d="M247 425V363" stroke="black" stroke-width="15" stroke-linecap="round"/>
<path d="M250 364H258.012C265.945 364 273.82 362.642 281.296 359.984V359.984C288.711 357.347 295.625 353.47 301.743 348.518L303.793 346.858C310.203 341.669 315.544 335.283 319.519 328.057V328.057C322.818 322.058 325.128 315.567 326.36 308.832L332 278" stroke="black" stroke-width="15" stroke-linecap="round"/>
<path d="M160 278H168.012C175.945 278 183.82 279.358 191.296 282.016V282.016C198.711 284.653 205.625 288.53 211.743 293.482L213.793 295.142C220.203 300.331 225.544 306.717 229.519 313.943V313.943C232.818 319.942 235.128 326.433 236.36 333.168L242 364" stroke="black" stroke-width="15" stroke-linecap="round"/>
<path d="M330 278H321.988C314.055 278 306.18 279.358 298.704 282.016V282.016C291.289 284.653 284.375 288.53 278.257 293.482L276.207 295.142C269.797 300.331 264.456 306.717 260.481 313.943V313.943C257.182 319.942 254.872 326.433 253.64 333.168L248 364" stroke="black" stroke-width="15" stroke-linecap="round"/>
<path d="M242 364H233.988C226.055 364 218.18 362.642 210.704 359.984V359.984C203.289 357.347 196.375 353.47 190.257 348.518L188.207 346.858C181.797 341.669 176.456 335.283 172.481 328.057V328.057C169.182 322.058 166.872 315.567 165.64 308.832L160 278" stroke="black" stroke-width="15" stroke-linecap="round"/>
<path d="M160 205H168.012C175.945 205 183.82 206.358 191.296 209.016V209.016C198.711 211.653 205.625 215.53 211.743 220.482L213.793 222.142C220.203 227.331 225.544 233.717 229.519 240.943V240.943C232.818 246.942 235.128 253.433 236.36 260.168L242 291" stroke="black" stroke-width="15" stroke-linecap="round"/>
<path d="M242 291H233.988C226.055 291 218.18 289.642 210.704 286.984V286.984C203.289 284.347 196.375 280.47 190.257 275.518L188.207 273.858C181.797 268.669 176.456 262.283 172.481 255.057V255.057C169.182 249.058 166.872 242.567 165.64 235.832L160 205" stroke="black" stroke-width="15" stroke-linecap="round"/>
<path d="M330 205H321.988C314.055 205 306.18 206.358 298.704 209.016V209.016C291.289 211.653 284.375 215.53 278.257 220.482L276.207 222.142C269.797 227.331 264.456 233.717 260.481 240.943V240.943C257.182 246.942 254.872 253.433 253.64 260.168L248 291" stroke="black" stroke-width="15" stroke-linecap="round"/>
<path d="M248 291H256.012C263.945 291 271.82 289.642 279.296 286.984V286.984C286.711 284.347 293.625 280.47 299.743 275.518L301.793 273.858C308.203 268.669 313.544 262.283 317.519 255.057V255.057C320.818 249.058 323.128 242.567 324.36 235.832L330 205" stroke="black" stroke-width="15" stroke-linecap="round"/>
<path d="M170 136H177.357C184.595 136 191.78 137.23 198.606 139.636V139.636C205.401 142.032 211.742 145.56 217.361 150.07L219.249 151.586C225.08 156.267 229.945 162.038 233.572 168.577V168.577C236.597 174.032 238.717 179.942 239.849 186.077L245 214" stroke="black" stroke-width="15" stroke-linecap="round"/>
<path d="M245 214H237.643C230.405 214 223.22 212.77 216.394 210.364V210.364C209.599 207.968 203.258 204.44 197.639 199.93L195.751 198.414C189.92 193.733 185.055 187.962 181.428 181.423V181.423C178.403 175.968 176.283 170.058 175.151 163.923L170 136" stroke="black" stroke-width="15" stroke-linecap="round"/>
<path d="M325 136H317.643C310.405 136 303.22 137.23 296.394 139.636V139.636C289.599 142.032 283.258 145.56 277.639 150.07L275.751 151.586C269.92 156.267 265.055 162.038 261.428 168.577V168.577C258.403 174.032 256.283 179.942 255.151 186.077L250 214" stroke="black" stroke-width="15" stroke-linecap="round"/>
<path d="M250 214H257.357C264.595 214 271.78 212.77 278.606 210.364V210.364C285.401 207.968 291.742 204.44 297.361 199.93L299.249 198.414C305.08 193.733 309.945 187.962 313.572 181.423V181.423C316.597 175.968 318.717 170.058 319.849 163.923L325 136" stroke="black" stroke-width="15" stroke-linecap="round"/>
<path d="M221 153V132.576C221 128.202 221.408 123.837 222.219 119.538V119.538C224.689 106.449 230.825 94.3304 239.913 84.5929L247 77" stroke="black" stroke-width="15" stroke-linecap="round"/>
<path d="M273 153V132.552C273 128.074 272.585 123.607 271.76 119.206V119.206C269.301 106.088 263.266 93.9039 254.321 83.9988L248 77" stroke="black" stroke-width="15" stroke-linecap="round"/>
<path d="M492.5 250C492.5 383.929 383.929 492.5 250 492.5C116.071 492.5 7.5 383.929 7.5 250C7.5 116.071 116.071 7.5 250 7.5C383.929 7.5 492.5 116.071 492.5 250Z" stroke="#FCBA7E" stroke-width="15"/>
<path d="M80 77L422 419" stroke="#FCBA7E" stroke-width="15" stroke-linecap="round"/>
</svg>
