<svg width="434" height="439" viewBox="0 0 434 439" fill="none" xmlns="http://www.w3.org/2000/svg">
<path d="M151.5 43L150.299 47.0841C147.838 55.4511 148.261 64.4024 151.5 72.5V72.5L156.8 83.1008C158.262 86.0248 159.4 89.1 160.193 92.2716V92.2716C162.034 99.6363 161.974 107.348 160.018 114.683L159 118.5" stroke="black" stroke-width="15" stroke-linecap="round"/>
<path d="M274 43L272.799 47.0841C270.338 55.4511 270.761 64.4024 274 72.5V72.5L279.3 83.1008C280.762 86.0248 281.9 89.1 282.693 92.2716V92.2716C284.534 99.6363 284.474 107.348 282.518 114.683L281.5 118.5" stroke="black" stroke-width="15" stroke-linecap="round"/>
<path d="M207.273 8L205.525 13.9522C201.946 26.1424 202.561 39.1813 207.273 50.9801V50.9801L214.981 66.4218C217.108 70.6841 218.764 75.1662 219.917 79.7883V79.7883C222.595 90.5177 222.508 101.751 219.663 112.437L218.182 118" stroke="black" stroke-width="15" stroke-linecap="round"/>
<path d="M8.49939 189.499H423.499" stroke="black" stroke-width="15" stroke-linecap="round"/>
<path d="M22 246H415" stroke="#FCBA7E" stroke-width="15" stroke-linecap="round"/>
<path d="M124 431.5H313M124 375H313" stroke="black" stroke-width="15" stroke-linecap="round"/>
<path d="M313.5 376L313.5 431" stroke="black" stroke-width="15" stroke-linecap="round"/>
<path d="M124 376L124 431" stroke="black" stroke-width="15" stroke-linecap="round"/>
<path d="M8 190L14.2183 232.284C15.0711 238.083 16.4322 243.797 18.2858 249.358L25.7261 271.678C27.9029 278.209 30.7481 284.497 34.2166 290.443L41.2259 302.459C44.7324 308.47 48.8567 314.098 53.5319 319.253L66 333L91.5991 355.799C95.8586 359.593 100.435 363.015 105.278 366.028L120.5 375.5" stroke="black" stroke-width="15" stroke-linecap="round"/>
<path d="M426.5 190L420.282 232.284C419.429 238.083 418.068 243.797 416.214 249.358L408.774 271.678C406.597 278.209 403.752 284.497 400.283 290.443L393.274 302.459C389.768 308.47 385.643 314.098 380.968 319.253L368.5 333L342.901 355.799C338.641 359.593 334.065 363.015 329.222 366.028L314 375.5" stroke="black" stroke-width="15" stroke-linecap="round"/>
</svg>
