<svg width="402" height="413" viewBox="0 0 402 413" fill="none" xmlns="http://www.w3.org/2000/svg">
<path d="M321 185.5L314.86 192.622C310.638 197.52 307.06 202.94 304.215 208.748V208.748C299.139 219.112 296.5 230.499 296.5 242.04V254.5" stroke="black" stroke-width="15" stroke-linecap="round"/>
<path d="M69 296H99" stroke="black" stroke-width="15" stroke-linecap="round"/>
<path d="M69 346H99" stroke="black" stroke-width="15" stroke-linecap="round"/>
<path d="M42 41H76.2524L126 41" stroke="#FCBA7E" stroke-width="15" stroke-linecap="square"/>
<path d="M28.5 8V44" stroke="black" stroke-width="15" stroke-linecap="round"/>
<path d="M29 8L83.5 8L138 8" stroke="black" stroke-width="15" stroke-linecap="round"/>
<path d="M30 405H84.5H139" stroke="black" stroke-width="15" stroke-linecap="round"/>
<path d="M138 8V44" stroke="black" stroke-width="15" stroke-linecap="round"/>
<path d="M160 83V191" stroke="black" stroke-width="15" stroke-linecap="round"/>
<path d="M8 268V376" stroke="black" stroke-width="15" stroke-linecap="round"/>
<path d="M160 268V376" stroke="black" stroke-width="15" stroke-linecap="round"/>
<path d="M8 83V191" stroke="black" stroke-width="15" stroke-linecap="round"/>
<path d="M28.5 44.5L21.7837 50.5767C19.2709 52.8501 17.0493 55.426 15.1697 58.2455V58.2455C11.1294 64.3059 8.77458 71.3322 8.34686 78.6033L8 84.5" stroke="black" stroke-width="15" stroke-linecap="round"/>
<path d="M138 44L144.123 49.5396C147.03 52.1698 149.6 55.1497 151.774 58.4115V58.4115C155.547 64.0711 158.061 70.4752 159.144 77.1903L160 82.5" stroke="black" stroke-width="15" stroke-linecap="round"/>
<path d="M8 376V376C9.25004 387.563 16.1779 397.743 26.4753 403.15L30 405" stroke="black" stroke-width="15" stroke-linecap="round"/>
<path d="M160 376V376C158.74 387.653 152.095 398.043 142.044 404.074L140.5 405" stroke="black" stroke-width="15" stroke-linecap="round"/>
<path d="M8 191.5L25.2614 202.288C29.6771 205.048 33.2952 208.914 35.7572 213.502V213.502C40.3045 221.977 40.4961 232.122 36.2721 240.762L35.7276 241.875C33.284 246.874 29.591 251.156 25.0062 254.308L8 266" stroke="black" stroke-width="15" stroke-linecap="round"/>
<path d="M160 193L142.739 203.788C138.323 206.548 134.705 210.414 132.243 215.002V215.002C127.695 223.477 127.504 233.622 131.728 242.262L132.272 243.375C134.716 248.374 138.409 252.656 142.994 255.808L160 267.5" stroke="black" stroke-width="15" stroke-linecap="round"/>
<path d="M297.5 264.5L308.07 249.904C314.779 240.639 324.715 234.223 335.92 231.921V231.921C348.111 229.416 360.796 231.985 371.051 239.035L371.54 239.371C381.468 246.197 388.407 256.564 390.931 268.345L392.588 276.075C393.857 281.998 394.317 288.065 393.956 294.111L393.218 306.468C392.741 314.461 391.306 322.366 388.944 330.016L386.212 338.863C383.418 347.908 379.354 356.512 374.141 364.415L371.954 367.731C368.329 373.227 364.118 378.314 359.395 382.902L353.735 388.4C350.598 391.448 346.999 393.979 343.071 395.902V395.902C331.945 401.346 318.968 401.531 307.692 396.405L298 392" stroke="#FCBA7E" stroke-width="15" stroke-linecap="round"/>
<path d="M297 264L287.332 250.223C280.696 240.767 270.697 234.205 259.382 231.88V231.88C247.318 229.401 234.765 231.943 224.616 238.92L223.96 239.371C214.032 246.197 207.093 256.564 204.569 268.345L202.912 276.075C201.643 281.998 201.183 288.065 201.544 294.111L202.282 306.468C202.759 314.461 204.194 322.366 206.556 330.016L209.288 338.863C212.082 347.908 216.146 356.512 221.359 364.415L223.546 367.731C227.171 373.227 231.382 378.314 236.105 382.902L241.765 388.4C244.902 391.448 248.501 393.979 252.429 395.902V395.902C263.555 401.346 276.532 401.531 287.808 396.405L297.5 392" stroke="#FCBA7E" stroke-width="15" stroke-linecap="round"/>
</svg>
