<svg width="500" height="500" viewBox="0 0 500 500" fill="none" xmlns="http://www.w3.org/2000/svg">
<path d="M119 214L120.356 211.627C124.766 203.91 130.185 196.815 136.469 190.531L140.5 186.5L152 176.5L159.733 171.183C165.231 167.404 171.092 164.184 177.231 161.572L191.5 155.5L199.255 152.592C204.741 150.535 210.397 148.963 216.158 147.897L234.5 144.5" stroke="black" stroke-width="15" stroke-linecap="round"/>
<path d="M264 139H280.5" stroke="black" stroke-width="15" stroke-linecap="round"/>
<path d="M79 241V320" stroke="black" stroke-width="15" stroke-linecap="round"/>
<path d="M421 226L421 320" stroke="black" stroke-width="15" stroke-linecap="round"/>
<path d="M79 240V240C78.3407 231.429 79.4881 222.815 82.368 214.715L83.7706 210.77C85.2544 206.597 87.0774 202.552 89.2213 198.677L92.9453 191.945C96.9661 184.677 101.877 177.938 107.564 171.884L114.5 164.5L119.38 160.044C123.784 156.023 128.54 152.403 133.59 149.229L143.5 143L165 130.5L179.477 123.606C183.82 121.538 188.307 119.786 192.902 118.364L207 114L229 109L254 105.5L274 104.5H286.909C292.957 104.5 298.993 105.049 304.942 106.139L316.904 108.332C322.955 109.442 328.891 111.107 334.636 113.307L341.972 116.117C346.982 118.036 351.831 120.355 356.469 123.052L362.746 126.701C368.236 129.893 373.41 133.601 378.197 137.774L382.71 141.708C387.889 146.224 392.59 151.262 396.737 156.741L399.848 160.853C402.945 164.945 405.722 169.269 408.155 173.787L409.749 176.749C413.237 183.226 415.942 190.097 417.806 197.214V197.214C419.596 204.049 420.599 211.066 420.795 218.129L421 225.5" stroke="black" stroke-width="15" stroke-linecap="round"/>
<path d="M79 316.5V317.862C79 321.575 79.8139 325.244 81.3843 328.609V328.609C82.1261 330.199 83.0305 331.707 84.0829 333.111L87 337L91.2466 341.884C95.0565 346.265 99.5584 349.992 104.574 352.918L106.177 353.853C111.985 357.241 118.479 359.284 125.181 359.831V359.831C134.495 360.591 143.815 358.432 151.846 353.651L153.734 352.527C158.219 349.858 163.081 347.881 168.156 346.662L174.657 345.102C181.83 343.381 189.249 342.933 196.577 343.778V343.778C206.388 344.91 215.795 348.333 224.04 353.771L235 361L262.449 378.397C267.804 381.791 273.47 384.669 279.37 386.99L285.215 389.289C295.645 393.393 306.754 395.5 317.963 395.5V395.5C328.244 395.5 338.448 393.728 348.127 390.261L353.015 388.51C362.287 385.188 371.018 380.515 378.925 374.642L384.5 370.5L396 360.5L401.674 354.826C405.219 351.281 408.494 347.473 411.468 343.436L414 340L415.426 337.386C418.445 331.85 420.34 325.771 421 319.5V319.5" stroke="black" stroke-width="15" stroke-linecap="round"/>
<path d="M79 266V267.362C79 271.075 79.8139 274.744 81.3843 278.109V278.109C82.1261 279.699 83.0305 281.207 84.0829 282.611L87 286.5L91.2466 291.384C95.0565 295.765 99.5584 299.492 104.574 302.418L106.177 303.353C111.985 306.741 118.479 308.784 125.181 309.331V309.331C134.495 310.091 143.815 307.932 151.846 303.151L153.734 302.027C158.219 299.358 163.081 297.381 168.156 296.162L174.657 294.602C181.83 292.881 189.249 292.433 196.577 293.278V293.278C206.388 294.41 215.795 297.833 224.04 303.271L235 310.5L262.449 327.897C267.804 331.291 273.47 334.169 279.37 336.49L285.215 338.789C295.645 342.893 306.754 345 317.963 345V345C328.244 345 338.448 343.228 348.127 339.761L353.015 338.01C362.287 334.688 371.018 330.015 378.925 324.142L384.5 320L396 310L401.674 304.326C405.219 300.781 408.494 296.973 411.468 292.936L414 289.5L415.426 286.886C418.445 281.35 420.34 275.271 421 269V269" stroke="black" stroke-width="15" stroke-linecap="round"/>
<path d="M492.5 250C492.5 383.929 383.929 492.5 250 492.5C116.071 492.5 7.5 383.929 7.5 250C7.5 116.071 116.071 7.5 250 7.5C383.929 7.5 492.5 116.071 492.5 250Z" stroke="#FCBA7E" stroke-width="15"/>
<path d="M361.5 207.5C361.5 226.83 345.83 242.5 326.5 242.5C307.17 242.5 291.5 226.83 291.5 207.5C291.5 188.17 307.17 172.5 326.5 172.5C345.83 172.5 361.5 188.17 361.5 207.5Z" stroke="black" stroke-width="15"/>
<path d="M80 77L422 419" stroke="#FCBA7E" stroke-width="15" stroke-linecap="round"/>
</svg>
